# xmcd
#
# Track frame offsets:
#	150
#	14241
#	29017
#	47116
#	63262
#	77998
#	91535
#	106528
#	123511
#	137063
#	149673
#	168571
#	184635
#
# Disc length: 2737 seconds
#
# Revision: 0
# Processed by: cddbd v1.4PL0 Copyright (c) Steve Scherf et al.
# Submitted via: dBpowerAMP V4.0
#
DISCID=b40aaf0d
DTITLE=Bailão do Herança - Bailão do Herança
DYEAR=1900
DGENRE=
TTITLE0=Embalo do Herança
TTITLE1=A-M-M-M
TTITLE2=Surungo do naomro
TTITLE3=Capricha gaiteiro
TTITLE4=O garrafão
TTITLE5=Casar não é comigo
TTITLE6=Os bonitão
TTITLE7=A dança da cachaça
TTITLE8=Saudade da Piquitita
TTITLE9=Beijo quero te dar
TTITLE10=Meu pecado
TTITLE11=Tarde demais
TTITLE12=Menina moça
EXTD=
EXTT0=
EXTT1=
EXTT2=
EXTT3=
EXTT4=
EXTT5=
EXTT6=
EXTT7=
EXTT8=
EXTT9=
EXTT10=
EXTT11=
EXTT12=
PLAYORDER=
